<svg xmlns="http://www.w3.org/2000/svg" viewBox="0 0 640 640" width="32px" height="32px">
    <style>
        :root {
            --bg: #3b4167;
            --fill-up: #6080c0;
            --fill-down: #8058a0;
            --stroke: #6858a0;

            --text-up: #ddf;
            --text-down: #aaf;
        }

        #circle-bg {
            stroke: var(--stroke);
            stroke-miterlimit: 10;
            stroke-width: 20px;
        }

        g {
            fill: none;
            stroke: url(#text-fill);
            stroke-width: 20;
        }

        g>rect {
            stroke: none;
            fill: url(#text-fill);
        }
    </style>

    <defs>
        <linearGradient id="fill" x1="320" y1="80" x2="320" y2="560" gradientUnits="userSpaceOnUse">
            <stop offset="0" stop-color="var(--fill-up)" />
            <stop offset="1" stop-color="var(--fill-down)" />
        </linearGradient>

        <linearGradient id="text-fill" x1="0" y1="-200" x2="0" y2="0" gradientUnits="userSpaceOnUse">
            <stop offset="0" stop-color="var(--text-up)" />
            <stop offset="1" stop-color="var(--text-down)" />
        </linearGradient>
    </defs>

    <!-- <rect width="640" height="640" fill="#3b4167" /> -->
    <circle cx="320" cy="320" r="320" fill="var(--bg)" />
    <circle fill="url(#fill)" cx="320" cy="320" r="240" id="circle-bg" />

    <g transform="translate(320, 320) translate(-120, 90) scale(1.2)">
        <rect x="-10" y="-155" width="20" height="20" />
        <path d="
            M 0 0
            l 0 -125
            m 0 45
            c 0 -40 50 -40 50 0
            l 0 80
            l 0 -80
            c 0 -40 50 -40 50 0
            l 0 80
        " />
        <g transform="translate(150, 0)">
            <line x1="0" y1="0" x2="0" y2="-155" />
            <line x1="0" y1="0" x2="0" y2="-65" transform="translate(50, 0) skewX(30)" />
            <line x1="0" y1="-120" x2="0" y2="-55" transform="translate(-20, 0) skewX(-30)" />
        </g>
    </g>
</svg>